<svg id="Replica_Platform_Light" data-name="Replica Platform Light" xmlns="http://www.w3.org/2000/svg" xmlns:xlink="http://www.w3.org/1999/xlink" width="67" height="67" viewBox="0 0 67 67">
  <defs>
    <linearGradient id="linear-gradient" x1="0.5" x2="0.5" y2="1" gradientUnits="objectBoundingBox">
      <stop offset="0" stop-color="#fff"/>
      <stop offset="1" stop-color="#d8e1ed"/>
    </linearGradient>
    <linearGradient id="linear-gradient-2" x1="0.159" y1="1.344" x2="0.842" y2="-0.346" gradientUnits="objectBoundingBox">
      <stop offset="0" stop-color="#fff"/>
      <stop offset="1" stop-color="#ababa5"/>
    </linearGradient>
  </defs>
  <rect id="Rectangle_250" data-name="Rectangle 250" width="67" height="67" rx="8" fill="url(#linear-gradient)"/>
  <g id="Group_280" data-name="Group 280" transform="translate(11.675 11.119)">
    <path id="Path_294" data-name="Path 294" d="M215.747,832.056a10.494,10.494,0,0,1,3.475-1.079,7.658,7.658,0,0,1,.96-.063q5.461,0,10.921,0,4.315-4.353,8.631-8.7l3.178-3.2a2.252,2.252,0,0,0,.516-.756.852.852,0,0,0-.338-1.095,2.141,2.141,0,0,0-.8-.312,5.246,5.246,0,0,0-1.027-.09q-10.54,0-21.079,0a7.646,7.646,0,0,0-.96.063,10.5,10.5,0,0,0-3.475,1.079A6.727,6.727,0,0,0,214,819.151c-1.068,1.078-2.151,2.143-3.228,3.213q-4.617,4.587-9.233,9.174a4.4,4.4,0,0,0-.35.388,1.522,1.522,0,0,0-.329.687.808.808,0,0,0,.226.733,1.416,1.416,0,0,0,.545.337,2.9,2.9,0,0,0,.859.182c.389.019.779.024,1.168.028l9.671.086c.223-.223.449-.443.67-.667A6.712,6.712,0,0,1,215.747,832.056Z" transform="translate(-200.849 -816.749)" fill="#4428e8"/>
    <path id="Path_295" data-name="Path 295" d="M242.911,847.159a2.258,2.258,0,0,0,.516-.756.852.852,0,0,0-.338-1.095,2.122,2.122,0,0,0-.8-.312,5.2,5.2,0,0,0-1.027-.091l-10.158,0-.815.822a6.445,6.445,0,0,1-1.653,1.172,10.757,10.757,0,0,1-3.267,1.066,7.738,7.738,0,0,1-1.274.1l-8.723-.071c-.6-.005-1.2-.015-1.8-.023v.005l-.235,0q-1.276,1.276-2.558,2.545-4.617,4.587-9.233,9.175a4.351,4.351,0,0,0-.35.387,1.522,1.522,0,0,0-.329.688.808.808,0,0,0,.226.732,1.416,1.416,0,0,0,.545.337,2.9,2.9,0,0,0,.859.182c.389.019.779.024,1.168.028l9.782.088c.186-.186.375-.37.56-.557a6.727,6.727,0,0,1,1.744-1.257,10.506,10.506,0,0,1,3.475-1.079,7.669,7.669,0,0,1,.96-.063q5.4,0,10.811,0,4.369-4.408,8.741-8.815Z" transform="translate(-200.849 -830.744)" fill="url(#linear-gradient-2)"/>
    <path id="Path_296" data-name="Path 296" d="M228.633,875.167a10.752,10.752,0,0,1-3.267,1.066,7.7,7.7,0,0,1-1.274.1l-8.723-.071c-.6-.005-1.2-.015-1.8-.023v.005h-.124q-1.33,1.332-2.668,2.656-4.617,4.587-9.233,9.174a4.409,4.409,0,0,0-.35.388,1.522,1.522,0,0,0-.329.688.808.808,0,0,0,.226.733,1.414,1.414,0,0,0,.545.337,2.9,2.9,0,0,0,.859.182c.389.019.779.024,1.168.028q4.954.046,9.906.089v-.005c.6.008,1.2.018,1.8.023l8.723.071a7.724,7.724,0,0,0,1.274-.1,10.75,10.75,0,0,0,3.267-1.066,6.442,6.442,0,0,0,1.653-1.172q4.721-4.765,9.446-9.526l3.178-3.2a2.252,2.252,0,0,0,.516-.756.852.852,0,0,0-.338-1.095,2.139,2.139,0,0,0-.8-.312,5.246,5.246,0,0,0-1.027-.091H230.992l-.705.711A6.456,6.456,0,0,1,228.633,875.167Z" transform="translate(-200.849 -844.847)" fill="#06c4ff"/>
  </g>
</svg>
